# xmcd
#
# Track frame offsets: 
#        150
#        22127
#        36558
#        55844
#        69031
#        88570
#        111397
#        126499
#        147227
#        170134
#        186167
#        200569
#
# Disc length: 2904 seconds
#
# Revision: 0
# Processed by: cddbd v1.5.2PL0 Copyright (c) Steve Scherf et al.
# Submitted via: ExactAudioCopyFreeDBPlugin 1.0
#
DISCID=b80b560c
DTITLE=Ash Grunwald - Mojo
DYEAR=2019
DGENRE=Blues
TTITLE0=Hammer
TTITLE1=Ain't My Problem
TTITLE2=Waiting Around To Die
TTITLE3=Whispering Voice
TTITLE4=Human
TTITLE5=Trouble's Door
TTITLE6=Mountain
TTITLE7=3am
TTITLE8=How Many More Years
TTITLE9=Whipping Boy
TTITLE10=The Boogie
TTITLE11=Goin' Out West
EXTD=
EXTT0=
EXTT1=
EXTT2=
EXTT3=
EXTT4=
EXTT5=
EXTT6=
EXTT7=
EXTT8=
EXTT9=
EXTT10=
EXTT11=
PLAYORDER=
